<svg width="20.000000" height="20.000000" viewBox="0 0 20 20" fill="none" xmlns="http://www.w3.org/2000/svg" xmlns:xlink="http://www.w3.org/1999/xlink">
	<desc>
			Created with Pixso.
	</desc>
	<defs/>
	<path id="Vector" d="M10 20C4.47 20 0 15.52 0 10C0 4.47 4.47 0 10 0C15.52 0 20 4.47 20 10C20 15.52 15.52 20 10 20ZM10.28 6.75C8.28 6.75 6.75 8.25 6.75 10C6.75 11.74 8.28 13.25 10.28 13.25C10.79 13.25 11.28 13.14 11.71 12.97C11.8 12.93 11.9 12.91 12 12.91C12.1 12.91 12.19 12.93 12.29 12.97C12.38 13.01 12.46 13.06 12.53 13.13C12.6 13.2 12.65 13.29 12.69 13.38C12.73 13.47 12.75 13.57 12.74 13.67C12.74 13.76 12.72 13.86 12.69 13.95C12.65 14.04 12.59 14.13 12.52 14.2C12.45 14.27 12.37 14.32 12.28 14.36C11.64 14.61 10.97 14.75 10.28 14.75C7.55 14.75 5.25 12.67 5.25 10C5.25 7.32 7.55 5.25 10.28 5.25C10.97 5.24 11.64 5.38 12.28 5.63C12.46 5.71 12.61 5.85 12.69 6.04C12.76 6.22 12.77 6.43 12.69 6.61C12.61 6.8 12.47 6.94 12.29 7.02C12.1 7.1 11.9 7.1 11.71 7.02C11.26 6.84 10.77 6.74 10.28 6.75Z" fill="#F8FCFF" fill-opacity="1.000000" fill-rule="evenodd"/>
</svg>
