<svg width="18.750000" height="18.750000" viewBox="0 0 18.75 18.75" fill="none" xmlns="http://www.w3.org/2000/svg" xmlns:xlink="http://www.w3.org/1999/xlink">
	<desc>
			Created with Pixso.
	</desc>
	<defs/>
	<path id="Vector" d="M9.37 0C7.52 0 5.7 0.54 4.16 1.58C2.62 2.61 1.42 4.07 0.71 5.78C0 7.5 -0.19 9.38 0.18 11.2C0.54 13.02 1.43 14.69 2.74 16C4.05 17.31 5.72 18.2 7.54 18.57C9.36 18.93 11.24 18.74 12.96 18.03C14.67 17.32 16.13 16.12 17.16 14.58C18.2 13.04 18.75 11.22 18.75 9.37C18.74 6.88 17.75 4.5 16 2.74C14.24 0.99 11.86 0 9.37 0ZM9.37 18C7.66 18 6 17.49 4.58 16.54C3.16 15.59 2.05 14.25 1.4 12.67C0.75 11.09 0.58 9.36 0.91 7.69C1.24 6.01 2.06 4.48 3.27 3.27C4.48 2.07 6.01 1.24 7.69 0.91C9.36 0.58 11.09 0.75 12.67 1.4C14.25 2.05 15.59 3.16 16.54 4.58C17.49 6 18 7.66 18 9.37C17.99 11.66 17.08 13.85 15.47 15.47C13.85 17.08 11.66 17.99 9.37 18ZM12.67 11.85C12.15 12.54 11.43 13.05 10.6 13.31C9.77 13.57 8.89 13.56 8.07 13.28C7.24 13.01 6.53 12.48 6.02 11.78C5.52 11.08 5.25 10.24 5.25 9.37C5.25 8.5 5.52 7.66 6.02 6.96C6.53 6.26 7.24 5.73 8.07 5.46C8.89 5.18 9.77 5.17 10.6 5.43C11.43 5.69 12.15 6.2 12.67 6.89C12.7 6.93 12.72 6.98 12.73 7.03C12.75 7.07 12.75 7.12 12.74 7.17C12.73 7.22 12.72 7.27 12.69 7.31C12.67 7.35 12.63 7.39 12.6 7.42C12.56 7.45 12.51 7.47 12.46 7.48C12.42 7.5 12.37 7.5 12.32 7.49C12.27 7.48 12.22 7.47 12.18 7.44C12.14 7.42 12.1 7.38 12.07 7.34C11.64 6.78 11.05 6.36 10.38 6.15C9.7 5.94 8.97 5.94 8.3 6.17C7.63 6.39 7.05 6.82 6.63 7.4C6.22 7.97 6 8.66 6 9.37C6 10.08 6.22 10.77 6.63 11.34C7.05 11.92 7.63 12.35 8.3 12.57C8.97 12.8 9.7 12.8 10.38 12.59C11.05 12.38 11.64 11.96 12.07 11.4C12.13 11.32 12.22 11.26 12.32 11.25C12.42 11.24 12.52 11.26 12.6 11.32C12.68 11.38 12.73 11.47 12.74 11.57C12.76 11.67 12.73 11.77 12.67 11.85Z" fill="#DEC5B1" fill-opacity="1.000000" fill-rule="nonzero"/>
</svg>
