<svg viewBox="0 0 33.1134 33.1162" xmlns="http://www.w3.org/2000/svg" xmlns:xlink="http://www.w3.org/1999/xlink" width="33.113403" height="33.116211" fill="none" customFrame="#000000">
	<path id="Vector" d="M30.3253 4.64343L25.9164 4.64343C26.0864 4.0199 26.0885 3.36252 25.9226 2.73789C25.7567 2.11327 25.4286 1.5436 24.9716 1.08663C24.2715 0.400749 23.3304 0.0166024 22.3503 0.0166024C21.3702 0.0166024 20.4291 0.400749 19.729 1.08663L16.552 4.27107L13.3842 1.08663C13.0401 0.742149 12.6315 0.468872 12.1817 0.282421C11.7319 0.0959693 11.2498 -8.22675e-16 10.7629 0C10.276 0 9.79389 0.0959693 9.34411 0.282421C8.89433 0.468872 8.48571 0.742149 8.14161 1.08663C7.6846 1.5436 7.35651 2.11327 7.1906 2.73789C7.02468 3.36252 7.02683 4.0199 7.19684 4.64343L2.77863 4.64343C2.04166 4.64343 1.33487 4.93619 0.813755 5.4573C0.292638 5.97842 -0.00012207 6.68521 -0.00012207 7.42218L-0.00012207 9.27468C0.000154816 9.82507 0.165303 10.3628 0.474028 10.8184C0.782753 11.2741 1.2209 11.6268 1.73197 11.8311L1.73197 28.4851C1.73539 29.7123 2.22442 30.8883 3.09221 31.7561C3.95999 32.6239 5.13598 33.1129 6.36322 33.1164L26.7407 33.1164C27.969 33.1164 29.147 32.6284 30.0155 31.7599C30.884 30.8914 31.372 29.7134 31.372 28.4851L31.372 11.8497C31.8845 11.641 32.3236 11.2849 32.6336 10.8265C32.9436 10.3681 33.1105 9.82804 33.1133 9.27468L33.1133 7.42218C33.1133 7.05649 33.0411 6.69439 32.9009 6.35665C32.7607 6.01891 32.5552 5.71217 32.2962 5.45402C32.0372 5.19587 31.7297 4.99138 31.3915 4.85228C31.0533 4.71318 30.691 4.64221 30.3253 4.64343ZM9.44763 2.40005C9.79472 2.05502 10.2642 1.86136 10.7536 1.86136C11.243 1.86136 11.7126 2.05502 12.0597 2.40005L14.3012 4.64343L9.16975 4.64343C8.95851 4.29228 8.87109 3.88045 8.92146 3.47377C8.97184 3.0671 9.1571 2.68904 9.44763 2.40005ZM14.6995 31.2639L6.36322 31.2639C5.62624 31.2639 4.91946 30.9711 4.39834 30.45C3.87723 29.9289 3.58447 29.2221 3.58447 28.4851L3.58447 12.0534L14.6995 12.0534L14.6995 31.2639ZM14.6995 10.2009L2.77863 10.2009C2.53297 10.2009 2.29738 10.1033 2.12367 9.92964C1.94996 9.75593 1.85238 9.52033 1.85238 9.27468L1.85238 7.42218C1.85238 7.17652 1.94996 6.94093 2.12367 6.76722C2.29738 6.59351 2.53297 6.49593 2.77863 6.49593L14.6995 6.49593L14.6995 10.2009ZM21.0535 2.40005C21.3722 2.08328 21.7951 1.89311 22.2435 1.86495C22.6919 1.83678 23.1353 1.97255 23.491 2.24696C23.8468 2.52138 24.0907 2.91573 24.1773 3.3566C24.264 3.79747 24.1874 4.2548 23.962 4.64343L18.812 4.64343L21.0535 2.40005ZM29.5195 28.4851C29.5195 29.2221 29.2267 29.9289 28.7056 30.45C28.1845 30.9711 27.4777 31.2639 26.7407 31.2639L18.4045 31.2639L18.4045 12.0534L29.5195 12.0534L29.5195 28.4851ZM31.2608 9.27468C31.2608 9.52033 31.1632 9.75593 30.9895 9.92964C30.8158 10.1033 30.5802 10.2009 30.3346 10.2009L18.4045 10.2009L18.4045 6.49593L30.3346 6.49593C30.5802 6.49593 30.8158 6.59351 30.9895 6.76722C31.1632 6.94093 31.2608 7.17652 31.2608 7.42218L31.2608 9.27468Z" fill="rgb(112.207,65.3376,115.812)" fill-rule="evenodd" />
</svg>
