<svg width="21.500000" height="21.500000" viewBox="0 0 21.5 21.5" fill="none" xmlns="http://www.w3.org/2000/svg" xmlns:xlink="http://www.w3.org/1999/xlink">
	<desc>
			Created with Pixso.
	</desc>
	<defs/>
	<path id="Vector" d="M3.75 13.33L4.5 13.33C4.5 13.18 4.45 13.04 4.37 12.92C4.29 12.8 4.18 12.7 4.04 12.64L3.75 13.33ZM17.75 13.33L17.45 12.64C17.31 12.7 17.2 12.8 17.12 12.92C17.04 13.04 17 13.18 17 13.33L17.75 13.33ZM14.5 5.75C14.5 5.94 14.57 6.13 14.71 6.28C14.86 6.42 15.05 6.5 15.25 6.5C15.44 6.5 15.63 6.42 15.78 6.28C15.92 6.13 16 5.94 16 5.75L14.5 5.75ZM5.5 5.75C5.5 5.94 5.57 6.13 5.71 6.28C5.86 6.42 6.05 6.5 6.25 6.5C6.44 6.5 6.63 6.42 6.78 6.28C6.92 6.13 7 5.94 7 5.75L5.5 5.75ZM5.75 3C4.22 3 2.76 3.6 1.68 4.68C0.6 5.76 0 7.22 0 8.75L1.5 8.75C1.5 7.62 1.94 6.54 2.74 5.74C3.54 4.94 4.62 4.5 5.75 4.5L5.75 3ZM15.75 4.5C16.87 4.5 17.95 4.94 18.75 5.74C19.55 6.54 20 7.62 20 8.75L21.5 8.75C21.5 7.22 20.89 5.76 19.81 4.68C18.73 3.6 17.27 3 15.75 3L15.75 4.5ZM13.75 20L7.75 20L7.75 21.5L13.75 21.5L13.75 20ZM7.75 20C6.78 20 6.13 19.99 5.65 19.93C5.19 19.87 4.99 19.76 4.86 19.63L3.8 20.69C4.26 21.15 4.82 21.33 5.45 21.41C6.06 21.5 6.82 21.5 7.75 21.5L7.75 20ZM3 16.75C3 17.67 2.99 18.43 3.08 19.04C3.16 19.67 3.35 20.23 3.8 20.69L4.86 19.63C4.73 19.5 4.62 19.3 4.56 18.84C4.5 18.36 4.5 17.71 4.5 16.75L3 16.75ZM17 16.75C17 17.71 16.99 18.36 16.93 18.84C16.87 19.3 16.76 19.5 16.63 19.63L17.69 20.69C18.14 20.23 18.33 19.67 18.41 19.04C18.5 18.43 18.5 17.67 18.5 16.75L17 16.75ZM13.75 21.5C14.67 21.5 15.43 21.5 16.04 21.41C16.67 21.33 17.24 21.15 17.69 20.69L16.63 19.63C16.5 19.76 16.3 19.87 15.84 19.93C15.36 19.99 14.71 20 13.75 20L13.75 21.5ZM5.75 4.5C5.96 4.5 6.17 4.51 6.37 4.54L6.59 3.06C6.31 3.02 6.03 3 5.75 3L5.75 4.5ZM10.75 0C9.65 0 8.58 0.34 7.69 0.98C6.79 1.62 6.12 2.52 5.77 3.56L7.19 4.04C7.44 3.3 7.92 2.65 8.56 2.2C9.2 1.74 9.96 1.5 10.75 1.5L10.75 0ZM5.77 3.56C5.59 4.1 5.49 4.67 5.5 5.25L7 5.25C7 4.82 7.06 4.42 7.19 4.04L5.77 3.56ZM15.75 3C15.46 3 15.18 3.02 14.9 3.06L15.12 4.54C15.33 4.51 15.54 4.5 15.75 4.5L15.75 3ZM10.75 1.5C11.53 1.5 12.29 1.74 12.93 2.2C13.57 2.65 14.04 3.3 14.3 4.04L15.72 3.56C15.36 2.52 14.7 1.62 13.8 0.98C12.91 0.34 11.84 0 10.75 0L10.75 1.5ZM14.3 4.04C14.43 4.42 14.5 4.82 14.5 5.25L16 5.25C16 4.66 15.9 4.09 15.72 3.56L14.3 4.04L14.3 4.04ZM4.5 16.75L4.5 13.33L3 13.33L3 16.75L4.5 16.75ZM4.04 12.64C3.29 12.31 2.64 11.77 2.19 11.07C1.74 10.38 1.5 9.57 1.5 8.75L0 8.75C0 9.86 0.32 10.96 0.93 11.89C1.55 12.83 2.42 13.57 3.45 14.02L4.04 12.64ZM17 13.33L17 16.75L18.5 16.75L18.5 13.33L17 13.33ZM20 8.75C20 9.57 19.75 10.38 19.3 11.07C18.85 11.77 18.2 12.31 17.45 12.64L18.04 14.02C19.07 13.57 19.94 12.83 20.56 11.89C21.17 10.96 21.5 9.86 21.5 8.75L20 8.75ZM14.5 5.25L14.5 5.75L16 5.75L16 5.25L14.5 5.25ZM5.5 5.25L5.5 5.75L7 5.75L7 5.25L5.5 5.25Z" fill="#1F1711" fill-opacity="1.000000" fill-rule="nonzero"/>
	<g opacity="0.700000">
		<path id="Vector" d="M10.75 8.74L10.23 9.28C10.37 9.42 10.55 9.49 10.75 9.49C10.94 9.49 11.12 9.42 11.26 9.28L10.75 8.74ZM10.23 11.81C9.81 11.5 9.35 11.12 9 10.72C8.64 10.29 8.5 9.96 8.5 9.75L7 9.75C7 10.52 7.44 11.2 7.87 11.7C8.32 12.22 8.88 12.68 9.34 13.02L10.23 11.81ZM8.5 9.75C8.5 9.17 8.76 8.92 8.99 8.84C9.24 8.75 9.7 8.78 10.23 9.28L11.26 8.2C10.44 7.41 9.4 7.1 8.49 7.42C7.56 7.75 7 8.65 7 9.75L8.5 9.75ZM12.14 13.02C12.6 12.68 13.17 12.22 13.62 11.7C14.05 11.2 14.5 10.52 14.5 9.75L13 9.75C13 9.96 12.85 10.29 12.49 10.72C12.14 11.12 11.68 11.5 11.26 11.81L12.15 13.02L12.14 13.02ZM14.5 9.75C14.5 8.65 13.93 7.75 13 7.42C12.09 7.1 11.05 7.41 10.23 8.2L11.26 9.28C11.79 8.78 12.25 8.75 12.5 8.84C12.73 8.92 13 9.17 13 9.75L14.5 9.75ZM9.35 13.02C9.71 13.29 10.13 13.63 10.75 13.63L10.75 12.13C10.72 12.13 10.71 12.13 10.65 12.1C10.51 12.01 10.36 11.91 10.23 11.81L9.34 13.02L9.35 13.02ZM11.26 11.81C11.13 11.91 10.98 12.01 10.84 12.1C10.79 12.13 10.77 12.13 10.75 12.13L10.75 13.63C11.36 13.63 11.78 13.29 12.14 13.02L11.26 11.81Z" fill="#1F1711" fill-opacity="1.000000" fill-rule="nonzero"/>
	</g>
	<g opacity="0.700000">
		<path id="Vector" d="M3.75 16.75L17.75 16.75" stroke="#1F1711" stroke-opacity="1.000000" stroke-width="1.500000" stroke-linejoin="round" stroke-linecap="round"/>
	</g>
</svg>
